<svg id="visual" viewBox="0 0 2560 1440" width="2560" height="1440" xmlns="http://www.w3.org/2000/svg" xmlns:xlink="http://www.w3.org/1999/xlink" version="1.1"><path d="M0 760L366 841L731 966L1097 994L1463 908L1829 829L2194 910L2560 725L2560 1441L2194 1441L1829 1441L1463 1441L1097 1441L731 1441L366 1441L0 1441Z" fill="#f7ddd4"></path><path d="M0 1077L366 945L731 908L1097 960L1463 1096L1829 869L2194 1067L2560 1081L2560 1441L2194 1441L1829 1441L1463 1441L1097 1441L731 1441L366 1441L0 1441Z" fill="#f8bba6"></path><path d="M0 1026L366 1131L731 1012L1097 1096L1463 1172L1829 1021L2194 1021L2560 1020L2560 1441L2194 1441L1829 1441L1463 1441L1097 1441L731 1441L366 1441L0 1441Z" fill="#f49979"></path><path d="M0 1186L366 1147L731 1242L1097 1215L1463 1150L1829 1111L2194 1098L2560 1212L2560 1441L2194 1441L1829 1441L1463 1441L1097 1441L731 1441L366 1441L0 1441Z" fill="#eb764d"></path><path d="M0 1342L366 1343L731 1295L1097 1232L1463 1347L1829 1272L2194 1338L2560 1320L2560 1441L2194 1441L1829 1441L1463 1441L1097 1441L731 1441L366 1441L0 1441Z" fill="#df5020"></path></svg>